<?xml version="1.0" encoding="UTF-8"?>
<svg viewBox="0 0 6.57143 10.21428" xmlns="http://www.w3.org/2000/svg">
<!--svg viewBox="0 0 113.57143 183.21428" xmlns="http://www.w3.org/2000/svg"-->
 <g transform="translate(-328.93 -443.08)">
  <path d="m379.5 455.12-9.562 87.875-23.282 52.125 36.938 15.625-4.375 9.5h13l-4.375-9.5 36.937-15.625-23.281-52.125-9.562-87.875h-12.438z" fill="none" stroke="#000"/>
  <path d="m387.844,610.75-.532-1-.531,1 .094,4.75 2.094,4.75h3.25l-4.375-9.5z" fill="#4d4d4d"/>
  <path d="m396.5,599-7.859,5.875-1.86,5.875h1.063l36.937-15.625-14.14-.063-14.141,3.938z" fill="#1a1a1a"/>
  <path d="m396.5,599 .5-28 4.5-28 23.281,52.125-28.281,3.875z" fill="#919191"/>
  <path d="m391.94 555.12-3-50 3-50 9.562 87.875-2.781 8.062-6.781 4.063z" fill="#3c3c3c"/>
  <path d="m379.5 555.12-4.781-4.063-4.781-8.062 9.562-87.875 2 50-2 50z" fill="#c6c6c6"/>
  <path d="m379.5 455.12v100l6.219 2 6.219-2v-100h-12.438z" fill="#8d8d8d"/>
  <path d="m384.656,610.75-.531-1-.531,1-4.375,9.5h3.25l2.093-4.75 .094-4.75z" fill="#d3d3d3"/>
  <path d="m374.94 599-14.141-4.938-14.141 1.063 36.938 15.625h1.062l-1.859-5.875-7.859-5.875z" fill="#4d4d4d"/>
  <path d="m369.94 543 4.5 28 0.5 28-28.282-3.875 23.282-52.125z" fill="#ccc"/>
  <path d="m386.78 610.75-1.062-1-1.063 1-2.187 9.5h6.5l-2.188-9.5z" fill="#919191"/>
  <path d="m386.78 610.75 9.719-11.75-10.781-3-10.781 3 9.718 11.75h2.125z" fill="#333"/>
  <path d="m379.5,555.125-4.281,21.937-.281,21.938 5.945-17 1.945-18 .336-3.938-3.664-4.937z" fill="#f8e3a0"/>
  <path d="m388.609,564 1.946,18 5.945,17-.281-21.938-4.281-21.937-3.665,4.937 .336,3.938z" fill="#be930e"/>
  <path d="m379.5 555.12 3.328 8.875 2.891 2 2.89-2 3.329-8.875h-12.438z" fill="#fdf6df"/>
  <path d="m374.94 599 7.89-35h5.781l7.891 35-10.781-2-10.781 2z" fill="#efb812"/>
  <path d="m394.18 576.77-2.4062 1.218 0.3593 10.5 4.3594 10.5-0.1563-11.109-2.1562-11.109z" fill="#373737"/>
  <path d="m401.5 543-9.562 12.125 4.562 43.875 5-56z" fill="#454545"/>
  <path d="m377.21 577.05-2.1406 10.969-0.1406 10.968 4.375-10.5 0.375-10.5-2.4688-0.937z" fill="#bdbdbd"/>
  <path d="m369.94 543 9.562 12.125-4.562 43.875-5-56z" fill="#e6e6e6"/>
  <path d="m358.93 574.92-7.9375 17.75 16.906 2.344-8.9688-20.094z" fill="#ff0"/>
  <path d="m401.09 558.77-0.7187 8.031h10.688l-3.5938-8.031h-6.375z" fill="#b5b500"/>
  <path d="m379.68 577.99-4.75 21h21.562l-4.7187-21h-12.094z" fill="#7b7b7b"/>
 </g>
</svg>
